<svg width="70" height="139" viewBox="0 0 70 139" version="1.1" xmlns="http://www.w3.org/2000/svg" xmlns:xlink="http://www.w3.org/1999/xlink" xmlns:figma="http://www.figma.com/figma/ns">
<title>Vector 2</title>
<desc>Created using Figma</desc>
<g id="Canvas" transform="translate(39 451)" figma:type="canvas">
<g id="Vector 2" style="mix-blend-mode:normal;" figma:type="vector">
<use xlink:href="#path0_stroke" transform="translate(-33.5 -446.5)" fill="#F2F2F2" style="mix-blend-mode:normal;"/>
</g>
</g>
<defs>
<path id="path0_stroke" d="M 29.5 0C 26.0129 -3.58328 26.0117 -3.58218 26.0104 -3.58083C 26.0096 -3.58006 26.0079 -3.57846 26.0063 -3.57691C 26.0037 -3.57437 25.9989 -3.5697 25.9937 -3.56463C 25.9845 -3.55564 25.969 -3.54042 25.9508 -3.52254C 25.9167 -3.48911 25.8622 -3.43551 25.7955 -3.36952C 25.6668 -3.24227 25.4689 -3.04535 25.2234 -2.79824C 24.7424 -2.31393 24.0267 -1.58412 23.1601 -0.676144C 21.448 1.11841 19.0238 3.74089 16.3682 6.8407C 11.1001 12.9953 4.5365 21.5431 0.162031 30.0121C -4.04942 38.209 -7.28002 48.3572 -2.9493 56.7863C 1.55533 65.5538 12.606 69.5941 29.5 69.5941L 29.5 59.5941C 13.2065 59.5941 7.66342 55.5602 5.94539 52.2163C 4.05346 48.534 4.97129 42.5337 9.05672 34.582C 12.9791 26.9024 18.8609 19.3017 23.9639 13.345C 26.4938 10.3891 28.7365 7.96513 30.395 6.2272C 31.2138 5.36893 31.8593 4.71098 32.3181 4.24908C 32.5426 4.02309 32.7093 3.8573 32.8278 3.74011C 32.8846 3.68389 32.9243 3.64484 32.9535 3.61618C 32.9669 3.60301 32.9753 3.59482 32.9821 3.58816C 32.985 3.58541 32.9862 3.58419 32.9876 3.5828C 32.988 3.5824 32.9879 3.58252 32.9881 3.58231C 32.9878 3.58267 32.9871 3.58328 29.5 0ZM 29.5 69.5941C 45.7687 69.5941 51.3126 73.6657 53.0431 77.0762C 54.9621 80.8582 54.0162 86.9851 49.9318 95.0346C 46.0061 102.817 40.12 110.519 35.0162 116.552C 32.4857 119.545 30.2422 122.001 28.5835 123.761C 27.7646 124.63 27.1188 125.296 26.6599 125.764C 26.4354 125.993 26.2686 126.161 26.1501 126.28C 26.0932 126.337 26.0535 126.376 26.0243 126.405C 26.0108 126.419 26.0024 126.427 25.9956 126.434C 25.9928 126.436 25.9915 126.438 25.9901 126.439C 25.9897 126.439 25.9898 126.439 25.9896 126.44C 25.9899 126.439 25.9906 126.439 29.5 130C 33.0094 133.561 33.0106 133.56 33.0119 133.559C 33.0127 133.558 33.0144 133.557 33.016 133.555C 33.0186 133.552 33.0233 133.548 33.0285 133.543C 33.0377 133.534 33.0532 133.518 33.0715 133.5C 33.1055 133.466 33.16 133.412 33.2267 133.345C 33.3553 133.216 33.5531 133.017 33.7985 132.767C 34.2795 132.277 34.995 131.538 35.8613 130.619C 37.5732 128.802 39.9968 126.147 42.6518 123.009C 47.9191 116.778 54.4783 108.129 58.8495 99.5595C 63.062 91.2575 66.2644 81.0329 61.9608 72.5513C 57.4687 63.6983 46.4188 59.5941 29.5 59.5941L 29.5 69.5941Z"/>
</defs>
</svg>
